<svg width="40" height="40" viewBox="0 0 40 40" fill="none" xmlns="http://www.w3.org/2000/svg">
<path d="M39.674 11.0937C39.5593 10.9309 39.4072 10.798 39.2305 10.7062C39.0538 10.6144 38.8576 10.5664 38.6584 10.5663H12.1297L10.1216 3.64131C9.33406 0.914431 7.46277 0.620056 6.69527 0.620056H1.3409C0.654609 0.620056 0.0996094 1.17568 0.0996094 1.86131C0.0996094 2.54693 0.655234 3.10252 1.34086 3.10252H6.69461C6.86398 3.10252 7.38086 3.10252 7.7334 4.32064L14.6415 29.7088C14.7915 30.2444 15.2796 30.6144 15.8365 30.6144H32.7102C33.234 30.6144 33.7015 30.2862 33.8784 29.7931L39.8259 12.2275C39.9628 11.8469 39.9059 11.4231 39.674 11.0937H39.674ZM31.8367 28.1326H16.7786L12.8274 13.0494H36.8936L31.8367 28.1326ZM29.3749 33.1301C27.6486 33.1301 26.2499 34.5288 26.2499 36.2551C26.2499 37.9813 27.6486 39.3801 29.3749 39.3801C31.1011 39.3801 32.4999 37.9813 32.4999 36.2551C32.4999 34.5288 31.1011 33.1301 29.3749 33.1301ZM18.1249 33.1301C16.3986 33.1301 14.9999 34.5288 14.9999 36.2551C14.9999 37.9813 16.3986 39.3801 18.1249 39.3801C19.8511 39.3801 21.2499 37.9813 21.2499 36.2551C21.2499 34.5288 19.8511 33.1301 18.1249 33.1301Z" fill="black"/>
</svg>
