<svg width="35" height="35" viewBox="0 0 35 35" fill="none" xmlns="http://www.w3.org/2000/svg">
<path d="M7.29183 13.1249V30.6249H1.4585V13.1249H7.29183ZM13.1252 30.6249C12.3516 30.6249 11.6097 30.3176 11.0628 29.7706C10.5158 29.2237 10.2085 28.4818 10.2085 27.7083V13.1249C10.2085 12.3228 10.5293 11.5937 11.0689 11.0687L20.6647 1.45825L22.2106 3.00409C22.6043 3.39784 22.8522 3.93742 22.8522 4.53533L22.8085 5.002L21.4231 11.6666H30.6252C31.3987 11.6666 32.1406 11.9739 32.6876 12.5209C33.2345 13.0678 33.5418 13.8097 33.5418 14.5833V17.4999C33.5418 17.8791 33.4689 18.2291 33.3377 18.5645L28.9335 28.8458C28.496 29.8958 27.4606 30.6249 26.2502 30.6249H13.1252ZM13.1252 27.7083H26.2939L30.6252 17.4999V14.5833H17.8064L19.4543 6.82492L13.1252 13.1687V27.7083Z" fill="#3B82F6"/>
</svg>
