<svg width="20" height="20" viewBox="0 0 20 20" fill="none" xmlns="http://www.w3.org/2000/svg">
<path d="M1.66683 2.50008V1.66675C1.44582 1.66675 1.23385 1.75455 1.07757 1.91083C0.921293 2.06711 0.833496 2.27907 0.833496 2.50008H1.66683ZM10.8335 2.50008H11.6668C11.6668 2.27907 11.579 2.06711 11.4228 1.91083C11.2665 1.75455 11.0545 1.66675 10.8335 1.66675V2.50008ZM10.8335 7.50008V6.66675C10.6125 6.66675 10.4005 6.75455 10.2442 6.91083C10.088 7.06711 10.0002 7.27907 10.0002 7.50008H10.8335ZM1.66683 3.33341H10.8335V1.66675H1.66683V3.33341ZM10.0002 2.50008V15.8334H11.6668V2.50008H10.0002ZM2.50016 14.1667V2.50008H0.833496V14.1667H2.50016ZM10.8335 8.33341H15.0002V6.66675H10.8335V8.33341ZM17.5002 10.8334V14.1667H19.1668V10.8334H17.5002ZM11.6668 15.8334V7.50008H10.0002V15.8334H11.6668ZM15.5893 16.4226C15.4331 16.5788 15.2211 16.6666 15.0002 16.6666C14.7792 16.6666 14.5673 16.5788 14.411 16.4226L13.2327 17.6009C13.7015 18.0696 14.3373 18.3329 15.0002 18.3329C15.6631 18.3329 16.2988 18.0696 16.7677 17.6009L15.5893 16.4226ZM14.411 15.2442C14.5673 15.088 14.7792 15.0003 15.0002 15.0003C15.2211 15.0003 15.4331 15.088 15.5893 15.2442L16.7677 14.0659C16.2988 13.5972 15.6631 13.3339 15.0002 13.3339C14.3373 13.3339 13.7015 13.5972 13.2327 14.0659L14.411 15.2442ZM5.58933 16.4226C5.43306 16.5788 5.22113 16.6666 5.00016 16.6666C4.77919 16.6666 4.56727 16.5788 4.411 16.4226L3.23266 17.6009C3.70148 18.0696 4.33725 18.3329 5.00016 18.3329C5.66307 18.3329 6.29884 18.0696 6.76766 17.6009L5.58933 16.4226ZM4.411 15.2442C4.56727 15.088 4.77919 15.0003 5.00016 15.0003C5.22113 15.0003 5.43306 15.088 5.58933 15.2442L6.76766 14.0659C6.29884 13.5972 5.66307 13.3339 5.00016 13.3339C4.33725 13.3339 3.70148 13.5972 3.23266 14.0659L4.411 15.2442ZM15.5893 15.2442C15.7527 15.4067 15.8335 15.6192 15.8335 15.8334H17.5002C17.5002 15.1951 17.256 14.5534 16.7677 14.0659L15.5893 15.2442ZM15.8335 15.8334C15.8334 16.0544 15.7456 16.2663 15.5893 16.4226L16.7677 17.6009C17.2365 17.1322 17.5 16.4964 17.5002 15.8334H15.8335ZM13.3335 15.0001H10.8335V16.6667H13.3335V15.0001ZM14.411 16.4226C14.2547 16.2663 14.1669 16.0544 14.1668 15.8334H12.5002C12.5002 16.4717 12.7443 17.1134 13.2327 17.6009L14.411 16.4226ZM14.1668 15.8334C14.1669 15.6124 14.2547 15.4005 14.411 15.2442L13.2327 14.0659C12.7638 14.5346 12.5003 15.1704 12.5002 15.8334H14.1668ZM4.411 16.4226C4.25471 16.2663 4.16688 16.0544 4.16683 15.8334H2.50016C2.50016 16.4717 2.74433 17.1134 3.23266 17.6009L4.411 16.4226ZM4.16683 15.8334C4.16688 15.6124 4.25471 15.4005 4.411 15.2442L3.23266 14.0659C2.76379 14.5346 2.5003 15.1704 2.50016 15.8334H4.16683ZM10.8335 15.0001H6.66683V16.6667H10.8335V15.0001ZM5.58933 15.2442C5.75266 15.4067 5.8335 15.6192 5.8335 15.8334H7.50016C7.50016 15.1951 7.256 14.5534 6.76766 14.0659L5.58933 15.2442ZM5.8335 15.8334C5.83345 16.0544 5.74562 16.2663 5.58933 16.4226L6.76766 17.6009C7.23654 17.1322 7.50002 16.4964 7.50016 15.8334H5.8335ZM17.5002 14.1667C17.5002 14.3878 17.4124 14.5997 17.2561 14.756C17.0998 14.9123 16.8878 15.0001 16.6668 15.0001V16.6667C17.3299 16.6667 17.9658 16.4034 18.4346 15.9345C18.9034 15.4657 19.1668 14.8298 19.1668 14.1667H17.5002ZM15.0002 8.33341C15.6632 8.33341 16.2991 8.59681 16.7679 9.06565C17.2368 9.53449 17.5002 10.1704 17.5002 10.8334H19.1668C19.1668 10.2862 19.0591 9.74442 18.8497 9.2389C18.6403 8.73338 18.3334 8.27405 17.9464 7.88714C17.5595 7.50023 17.1002 7.19331 16.5947 6.98392C16.0892 6.77452 15.5473 6.66675 15.0002 6.66675V8.33341ZM0.833496 14.1667C0.833496 14.8298 1.09689 15.4657 1.56573 15.9345C2.03457 16.4034 2.67045 16.6667 3.3335 16.6667V15.0001C3.11248 15.0001 2.90052 14.9123 2.74424 14.756C2.58796 14.5997 2.50016 14.3878 2.50016 14.1667H0.833496Z" fill="#686666"/>
</svg>
