<svg width="40" height="40" viewBox="0 0 40 40" fill="none" xmlns="http://www.w3.org/2000/svg">
<path fill-rule="evenodd" clip-rule="evenodd" d="M17.48 6.31333C19.1207 4.67233 21.3461 3.75027 23.6666 3.75H28.1666C28.4981 3.75 28.8161 3.8817 29.0505 4.11612C29.2849 4.35054 29.4166 4.66848 29.4166 5V11C29.4166 11.3315 29.2849 11.6495 29.0505 11.8839C28.8161 12.1183 28.4981 12.25 28.1666 12.25H23.6666C23.6338 12.25 23.6013 12.2565 23.571 12.269C23.5406 12.2816 23.5131 12.3 23.4899 12.3232C23.4666 12.3464 23.4482 12.374 23.4357 12.4043C23.4231 12.4347 23.4166 12.4672 23.4166 12.5V15.75H28.1666C28.3567 15.7499 28.5442 15.7931 28.715 15.8764C28.8859 15.9597 29.0354 16.0808 29.1524 16.2305C29.2694 16.3803 29.3507 16.5547 29.3901 16.7406C29.4296 16.9265 29.4261 17.119 29.38 17.3033L27.88 23.3033C27.8123 23.5739 27.6561 23.814 27.4362 23.9855C27.2164 24.1571 26.9455 24.2502 26.6666 24.25H23.4166V35C23.4166 35.3315 23.2849 35.6495 23.0505 35.8839C22.8161 36.1183 22.4981 36.25 22.1666 36.25H16.1666C15.8351 36.25 15.5172 36.1183 15.2827 35.8839C15.0483 35.6495 14.9166 35.3315 14.9166 35V24.25H11.6666C11.3351 24.25 11.0172 24.1183 10.7827 23.8839C10.5483 23.6495 10.4166 23.3315 10.4166 23V17C10.4166 16.8358 10.449 16.6733 10.5118 16.5216C10.5746 16.37 10.6667 16.2322 10.7827 16.1161C10.8988 16 11.0366 15.908 11.1883 15.8452C11.3399 15.7823 11.5025 15.75 11.6666 15.75H14.9166V12.5C14.9169 10.1795 15.839 7.95407 17.48 6.31333ZM23.6666 6.25C22.009 6.25 20.4193 6.90848 19.2472 8.08058C18.0751 9.25269 17.4166 10.8424 17.4166 12.5V17C17.4166 17.3315 17.2849 17.6495 17.0505 17.8839C16.8161 18.1183 16.4981 18.25 16.1666 18.25H12.9166V21.75H16.1666C16.4981 21.75 16.8161 21.8817 17.0505 22.1161C17.2849 22.3505 17.4166 22.6685 17.4166 23V33.75H20.9166V23C20.9166 22.6685 21.0483 22.3505 21.2827 22.1161C21.5172 21.8817 21.8351 21.75 22.1666 21.75H25.69L26.565 18.25H22.1666C21.8351 18.25 21.5172 18.1183 21.2827 17.8839C21.0483 17.6495 20.9166 17.3315 20.9166 17V12.5C20.9166 11.7707 21.2064 11.0712 21.7221 10.5555C22.2378 10.0397 22.9373 9.75 23.6666 9.75H26.9166V6.25H23.6666Z" fill="#CECECE"/>
</svg>
