<svg width="180" height="31" viewBox="0 0 180 31" fill="none" xmlns="http://www.w3.org/2000/svg">
<path d="M15.7035 1.6H20.8875V24H15.7035V1.6ZM5.5275 24H0.3435V1.6H5.5275V24ZM16.0875 14.816H5.1435V10.432H16.0875V14.816ZM34.0273 24.256C32.1926 24.256 30.5606 23.872 29.1313 23.104C27.7233 22.336 26.6033 21.2907 25.7713 19.968C24.9606 18.624 24.5553 17.0987 24.5553 15.392C24.5553 13.664 24.9606 12.1387 25.7713 10.816C26.6033 9.472 27.7233 8.42667 29.1313 7.68C30.5606 6.912 32.1926 6.528 34.0273 6.528C35.8406 6.528 37.4619 6.912 38.8913 7.68C40.3206 8.42667 41.4406 9.46133 42.2513 10.784C43.0619 12.1067 43.4673 13.6427 43.4673 15.392C43.4673 17.0987 43.0619 18.624 42.2513 19.968C41.4406 21.2907 40.3206 22.336 38.8913 23.104C37.4619 23.872 35.8406 24.256 34.0273 24.256ZM34.0273 20.16C34.8593 20.16 35.6059 19.968 36.2673 19.584C36.9286 19.2 37.4513 18.656 37.8353 17.952C38.2193 17.2267 38.4113 16.3733 38.4113 15.392C38.4113 14.3893 38.2193 13.536 37.8353 12.832C37.4513 12.128 36.9286 11.584 36.2673 11.2C35.6059 10.816 34.8593 10.624 34.0273 10.624C33.1953 10.624 32.4486 10.816 31.7873 11.2C31.1259 11.584 30.5926 12.128 30.1873 12.832C29.8033 13.536 29.6113 14.3893 29.6113 15.392C29.6113 16.3733 29.8033 17.2267 30.1873 17.952C30.5926 18.656 31.1259 19.2 31.7873 19.584C32.4486 19.968 33.1953 20.16 34.0273 20.16ZM55.124 24.256C53.268 24.256 51.6147 23.8827 50.164 23.136C48.7133 22.368 47.572 21.312 46.74 19.968C45.9293 18.624 45.524 17.0987 45.524 15.392C45.524 13.664 45.9293 12.1387 46.74 10.816C47.572 9.472 48.7133 8.42667 50.164 7.68C51.6147 6.912 53.268 6.528 55.124 6.528C56.9373 6.528 58.516 6.912 59.86 7.68C61.204 8.42667 62.196 9.504 62.836 10.912L58.964 12.992C58.516 12.1813 57.9507 11.584 57.268 11.2C56.6067 10.816 55.8813 10.624 55.092 10.624C54.2387 10.624 53.4707 10.816 52.788 11.2C52.1053 11.584 51.5613 12.128 51.156 12.832C50.772 13.536 50.58 14.3893 50.58 15.392C50.58 16.3947 50.772 17.248 51.156 17.952C51.5613 18.656 52.1053 19.2 52.788 19.584C53.4707 19.968 54.2387 20.16 55.092 20.16C55.8813 20.16 56.6067 19.9787 57.268 19.616C57.9507 19.232 58.516 18.624 58.964 17.792L62.836 19.904C62.196 21.2907 61.204 22.368 59.86 23.136C58.516 23.8827 56.9373 24.256 55.124 24.256ZM69.7445 20.48L69.8725 14.4L77.9045 6.784H83.8565L76.1445 14.624L73.5525 16.736L69.7445 20.48ZM65.6165 24V0.255999H70.6085V24H65.6165ZM78.4485 24L72.6245 16.768L75.7605 12.896L84.4965 24H78.4485ZM94.5668 24.256C92.6041 24.256 90.8761 23.872 89.3828 23.104C87.9108 22.336 86.7694 21.2907 85.9588 19.968C85.1481 18.624 84.7428 17.0987 84.7428 15.392C84.7428 13.664 85.1374 12.1387 85.9268 10.816C86.7374 9.472 87.8361 8.42667 89.2228 7.68C90.6094 6.912 92.1774 6.528 93.9268 6.528C95.6121 6.528 97.1268 6.89067 98.4708 7.616C99.8361 8.32 100.913 9.344 101.703 10.688C102.492 12.0107 102.887 13.6 102.887 15.456C102.887 15.648 102.876 15.872 102.855 16.128C102.833 16.3627 102.812 16.5867 102.791 16.8H88.8068V13.888H100.167L98.2468 14.752C98.2468 13.856 98.0654 13.0773 97.7028 12.416C97.3401 11.7547 96.8388 11.2427 96.1988 10.88C95.5588 10.496 94.8121 10.304 93.9588 10.304C93.1054 10.304 92.3481 10.496 91.6868 10.88C91.0468 11.2427 90.5454 11.7653 90.1828 12.448C89.8201 13.1093 89.6388 13.8987 89.6388 14.816V15.584C89.6388 16.5227 89.8414 17.3547 90.2468 18.08C90.6734 18.784 91.2601 19.328 92.0068 19.712C92.7748 20.0747 93.6708 20.256 94.6948 20.256C95.6121 20.256 96.4121 20.1173 97.0948 19.84C97.7988 19.5627 98.4388 19.1467 99.0148 18.592L101.671 21.472C100.881 22.368 99.8894 23.0613 98.6948 23.552C97.5001 24.0213 96.1241 24.256 94.5668 24.256ZM108.074 30.464C107.178 30.464 106.292 30.3253 105.418 30.048C104.543 29.7707 103.828 29.3867 103.274 28.896L105.098 25.344C105.482 25.6853 105.919 25.952 106.41 26.144C106.922 26.336 107.423 26.432 107.914 26.432C108.618 26.432 109.172 26.2613 109.578 25.92C110.004 25.6 110.388 25.056 110.73 24.288L111.626 22.176L112.01 21.632L118.186 6.784H122.986L115.21 25.056C114.655 26.4427 114.015 27.5307 113.29 28.32C112.586 29.1093 111.796 29.664 110.922 29.984C110.068 30.304 109.119 30.464 108.074 30.464ZM111.018 24.672L103.338 6.784H108.49L114.442 21.184L111.018 24.672ZM125.375 24V1.6H135.071C137.076 1.6 138.804 1.93067 140.255 2.592C141.705 3.232 142.825 4.16 143.615 5.376C144.404 6.592 144.799 8.04267 144.799 9.728C144.799 11.392 144.404 12.832 143.615 14.048C142.825 15.264 141.705 16.2027 140.255 16.864C138.804 17.504 137.076 17.824 135.071 17.824H128.255L130.559 15.488V24H125.375ZM130.559 16.064L128.255 13.6H134.783C136.383 13.6 137.577 13.2587 138.367 12.576C139.156 11.8933 139.551 10.944 139.551 9.728C139.551 8.49067 139.156 7.53067 138.367 6.848C137.577 6.16533 136.383 5.824 134.783 5.824H128.255L130.559 3.36V16.064ZM148.117 24V6.784H152.885V11.648L152.213 10.24C152.725 9.024 153.546 8.10667 154.677 7.488C155.807 6.848 157.183 6.528 158.805 6.528V11.136C158.591 11.1147 158.399 11.104 158.229 11.104C158.058 11.0827 157.877 11.072 157.685 11.072C156.319 11.072 155.21 11.4667 154.357 12.256C153.525 13.024 153.109 14.2293 153.109 15.872V24H148.117ZM169.84 24.256C168.005 24.256 166.373 23.872 164.944 23.104C163.536 22.336 162.416 21.2907 161.584 19.968C160.773 18.624 160.368 17.0987 160.368 15.392C160.368 13.664 160.773 12.1387 161.584 10.816C162.416 9.472 163.536 8.42667 164.944 7.68C166.373 6.912 168.005 6.528 169.84 6.528C171.653 6.528 173.274 6.912 174.704 7.68C176.133 8.42667 177.253 9.46133 178.064 10.784C178.874 12.1067 179.28 13.6427 179.28 15.392C179.28 17.0987 178.874 18.624 178.064 19.968C177.253 21.2907 176.133 22.336 174.704 23.104C173.274 23.872 171.653 24.256 169.84 24.256ZM169.84 20.16C170.672 20.16 171.418 19.968 172.08 19.584C172.741 19.2 173.264 18.656 173.648 17.952C174.032 17.2267 174.224 16.3733 174.224 15.392C174.224 14.3893 174.032 13.536 173.648 12.832C173.264 12.128 172.741 11.584 172.08 11.2C171.418 10.816 170.672 10.624 169.84 10.624C169.008 10.624 168.261 10.816 167.6 11.2C166.938 11.584 166.405 12.128 166 12.832C165.616 13.536 165.424 14.3893 165.424 15.392C165.424 16.3733 165.616 17.2267 166 17.952C166.405 18.656 166.938 19.2 167.6 19.584C168.261 19.968 169.008 20.16 169.84 20.16Z" fill="#1B335A"/>
</svg>
