<svg width="20" height="20" viewBox="0 0 20 20" fill="none" xmlns="http://www.w3.org/2000/svg">
<path d="M3.33317 16.6668C2.87484 16.6668 2.48262 16.5038 2.1565 16.1777C1.83039 15.8516 1.66706 15.4591 1.6665 15.0002V5.00016C1.6665 4.54183 1.82984 4.14961 2.1565 3.8235C2.48317 3.49738 2.87539 3.33405 3.33317 3.3335H16.6665C17.1248 3.3335 17.5173 3.49683 17.844 3.8235C18.1707 4.15016 18.3337 4.54238 18.3332 5.00016V15.0002C18.3332 15.4585 18.1701 15.851 17.844 16.1777C17.5179 16.5043 17.1254 16.6674 16.6665 16.6668H3.33317ZM9.99984 10.8335L3.33317 6.66683V15.0002H16.6665V6.66683L9.99984 10.8335ZM9.99984 9.16683L16.6665 5.00016H3.33317L9.99984 9.16683ZM3.33317 6.66683V5.00016V15.0002V6.66683Z" fill="#686868"/>
</svg>
