<svg width="40" height="40" viewBox="0 0 40 40" fill="none" xmlns="http://www.w3.org/2000/svg">
<path d="M33.15 12.2333C33 12.7833 32.3333 14.1666 31.2 15.4833C30.45 29.95 16.4167 34.65 6.8 29.8C5.48333 28.05 11.55 28.7666 13.7667 25.4166C5.38333 21.1333 6.05 9.68331 7.73333 10.15C11.6833 15.4666 18.05 15.95 19.0833 15.4666C19.0833 14.25 18.5667 11.6 21.4333 9.38331C23.0833 8.19998 26.5333 7.14998 29.65 10.5333C30.1833 10.8833 30.95 11.0333 32.1 10.7833C32.7833 10.4333 33.6833 10.6666 33.2167 11.8833L33.15 12.2333Z" stroke="#CECECE" stroke-width="2" stroke-linecap="round" stroke-linejoin="round"/>
</svg>
