<svg width="35" height="35" viewBox="0 0 35 35" fill="none" xmlns="http://www.w3.org/2000/svg">
<path d="M21.875 14.5833L28.5148 11.2642C28.7371 11.1531 28.984 11.1007 29.2323 11.1118C29.4805 11.123 29.7218 11.1974 29.9332 11.328C30.1446 11.4587 30.3191 11.6411 30.4402 11.8581C30.5612 12.0751 30.6249 12.3194 30.625 12.5679V22.4321C30.6249 22.6806 30.5612 22.9249 30.4402 23.1419C30.3191 23.3589 30.1446 23.5413 29.9332 23.672C29.7218 23.8026 29.4805 23.877 29.2323 23.8882C28.984 23.8993 28.7371 23.8469 28.5148 23.7358L21.875 20.4167V14.5833ZM4.375 11.6667C4.375 10.8931 4.68229 10.1513 5.22927 9.60427C5.77625 9.05729 6.51812 8.75 7.29167 8.75H18.9583C19.7319 8.75 20.4737 9.05729 21.0207 9.60427C21.5677 10.1513 21.875 10.8931 21.875 11.6667V23.3333C21.875 24.1069 21.5677 24.8487 21.0207 25.3957C20.4737 25.9427 19.7319 26.25 18.9583 26.25H7.29167C6.51812 26.25 5.77625 25.9427 5.22927 25.3957C4.68229 24.8487 4.375 24.1069 4.375 23.3333V11.6667Z" stroke="#EF4444" stroke-width="2" stroke-linecap="round" stroke-linejoin="round"/>
</svg>
